<svg xmlns="http://www.w3.org/2000/svg" viewBox="0 0 1605.09 1548.64"><defs><style>.cls-1{fill:#fff;}.cls-2{fill:#f6f6f6;}</style></defs><g id="Volle_Schubkraft" data-name="Volle Schubkraft"><path class="cls-1" d="M852.79,1439.32c-8.83,58,5.36-14.8,9.07-60.86-1.24-65.16-37.61-147.17-85-152.92-37.74,2.49-79.63,5.87-138.59,101.62,0,0,34.64-26.87,40.37-24.2s-100.87,54.13-78.24,224.52c0,0,3.33-40.55,51.55-92,0,0-72.85,96.28-48.27,238,0,0,8.23-48,10.88-47.73l-2.65-.31s-3.64,130.44,32.05,170.13c0,0-12.43-107.47,58.86-184.47,0,0,8.56-4.38,21.57-53.21,0,0-11.84,32.86,11.67,61.74-15.47-102.75,60.55-84.58,86.25-165.87,0,0,8.71,29.19-10.73,63.85,0,0,37.79-32.26,35.87-124.71C847.45,1392.9,856.33,1416.1,852.79,1439.32Z" transform="translate(-217.76 -322.63)"/><path class="cls-2" d="M746.78,1241.7c-34.72,10.09-52,83.93-52,83.93,19.45,50.28-9.89,108.92-9.89,108.92s27.37-14,28.35-36.32c0,0-2.9,60.06-21.67,77.36,0,0-55.12,99.67-26.39,129.83-11.33-71.31,132.74-174.33,141.11-240.08,0,0,18.21-101.08-10.65-119.7L778.43,1233Z" transform="translate(-217.76 -322.63)"/><path class="cls-1" d="M1244.6,1501.19c-4.72,58.51,4.3-15.14,4.76-61.35-5.84-64.91-47.9-144.15-95.58-146.54-37.47,5.14-79,11.46-131.08,111.14,0,0,32.66-29.25,38.57-27s-96.8,61.11-62.23,229.47c0,0,.47-40.69,44.94-95.44,0,0-65.88,101.19-31.36,240.85,0,0,4.82-48.5,7.48-48.38l-2.66-.12s5.57,130.37,44,167.44c0,0-20-106.32,45.71-188.16,0,0,8.23-5,17.77-54.6,0,0-9.5,33.62,16,60.77-22.68-101.4,54.44-88.64,74.34-171.54,0,0,10.74,28.5-6.2,64.45,0,0,35.42-34.84,27-126.93C1236,1455.26,1246.49,1477.77,1244.6,1501.19Z" transform="translate(-217.76 -322.63)"/><path class="cls-2" d="M1124.91,1311.54c-33.92,12.51-45.91,87.38-45.91,87.38,23,48.78-2.18,109.35-2.18,109.35s26.31-15.9,25.72-38.24c0,0,1.34,60.12-16.17,78.7,0,0-47.95,103.31-17.16,131.37-16.34-70.34,120.11-183.25,123.83-249.43,0,0,11-102.11-19.07-118.66l-18.1-11.39Z" transform="translate(-217.76 -322.63)"/></g><g id="Schriftzug"><path class="cls-1" d="M227.56,1115.5h255.5c21.7,0,32.2-9.8,32.2-25.9,0-15.4-10.5-25.2-32.9-25.2H366.16c-81.9,0-148.4-56-148.4-154.7,0-113.4,77.7-154.7,156.1-154.7H663.65V884.5H413.76c-18.9,0-32.2,7-32.2,24.5,0,18.2,13.3,25.9,32.2,25.9H523c93.8,0,156.1,55.3,156.1,154,0,93.1-70,156.1-161,156.1H225.46Z" transform="translate(-217.76 -322.63)"/><path class="cls-1" d="M1312.55,1000c0-142.1,111.3-252.7,259.7-252.7,146.3,0,242.2,93.8,249.9,207.9h-156.8c-4.2-27.3-40.6-65.1-97.3-65.1s-104.3,40.6-104.3,107.1,49.7,110.6,102.2,110.6c40.6,0,68.6-14,86.8-43.4h-86.1v-51.8h256.2c-1.4,128.8-102.2,240.1-250.6,240.1S1312.55,1142.8,1312.55,1000Z" transform="translate(-217.76 -322.63)"/><path class="cls-1" d="M1074.65,1207.15l-178.32-31.44-22.08,46.58L702.3,1192,931.72,734.86l260.41,45.91,59.29,508-172-30.31ZM1062,1072,1045.1,886.35l-11.32-2L954.43,1053Z" transform="translate(-217.76 -322.63)"/></g><g id="Spitze"><polygon id="Illuminati_confirmed" data-name="Illuminati confirmed" class="cls-1" points="713.92 412.21 920.48 0 974.33 458.11 713.92 412.21"/><polygon id="Illuminati_confirmed-2" data-name="Illuminati confirmed" class="cls-1" points="713.92 413.21 920.48 1 974.33 459.11 713.92 413.21"/></g></svg>